<svg xmlns="http://www.w3.org/2000/svg" viewBox="0 0 28 15.47"><defs><style>.cls-1{fill:#c1b5a8;}</style></defs><g id="Layer_2" data-name="Layer 2"><g id="Layer_1-2" data-name="Layer 1"><path class="cls-1" d="M2.7,2.24a1,1,0,0,0,.54-1C3.24.77,3.06.08,1.5.08H.19A.18.18,0,0,0,0,.27V4.49a.18.18,0,0,0,.19.19H2A1.37,1.37,0,0,0,3.53,3.29,1.16,1.16,0,0,0,2.7,2.24Zm.45,1.08c0,.67-.43,1-1.27,1H.36V2.47H2C2.73,2.47,3.15,2.78,3.15,3.32ZM.36,2.13V.43H1.5c1,0,1.35.23,1.35.84s-.35.86-1,.86ZM8.27,4.5a.17.17,0,0,1-.11.18H5.31a.18.18,0,0,1-.19-.19V.27A.18.18,0,0,1,5.31.08H8a.17.17,0,0,1,.1.17A.18.18,0,0,1,8,.43H5.47V2.19H7.63a.16.16,0,0,1,.11.17c0,.15-.1.18-.11.18H5.47V4.33H8.16A.17.17,0,0,1,8.27,4.5Zm14.22,0c0,.15-.1.18-.11.18H19.53a.18.18,0,0,1-.19-.19V.27a.18.18,0,0,1,.19-.19h2.68a.17.17,0,0,1,.11.17.18.18,0,0,1-.1.18H19.69V2.19h2.16s.1,0,.1.17-.09.18-.1.18H19.69V4.33h2.69A.17.17,0,0,1,22.49,4.5Zm-9.27-.59a.2.2,0,0,1-.06.13h0a2.25,2.25,0,0,1-1.64.7A2.18,2.18,0,0,1,9.23,2.42,2.18,2.18,0,0,1,11.46,0c.91,0,1.59.53,1.59,1.24,0,.33-.16.55-.26.55a.15.15,0,0,1-.15-.14.24.24,0,0,1,0-.08.84.84,0,0,0,.05-.29c0-.55-.5-.92-1.25-.92-.56,0-1.87.2-1.87,2.07a1.8,1.8,0,0,0,1.92,2,2,2,0,0,0,1.41-.55c.05,0,.09-.09.15-.09A.17.17,0,0,1,13.22,3.91Zm9.1,2.33A1.56,1.56,0,0,1,21,6.9c-1.52,0-2.46-1.13-3.45-2.33a10.14,10.14,0,0,0-2-2L15.06,3V4.58a.18.18,0,0,1-.18.1c-.14,0-.18-.09-.18-.1V.18h0s0-.09.18-.09.17.07.18.09V2.52L17.46.15a.22.22,0,0,1,.15-.07c.07,0,.19.08.19.17a.23.23,0,0,1-.08.14L15.77,2.32a9.48,9.48,0,0,1,2,2c.92,1.13,1.79,2.19,3.15,2.19a1.66,1.66,0,0,0,1.13-.39c.05,0,.07-.06.11-.06A.15.15,0,0,1,22.32,6.24ZM27,.25a.18.18,0,0,1-.1.18H25.44V4.58a.21.21,0,0,1-.36,0V.43H23.62a.18.18,0,0,1-.1-.18.17.17,0,0,1,.1-.17H26.9A.17.17,0,0,1,27,.25ZM4.1,10.59a.19.19,0,0,1-.18.18h-1v1c0,.07-.06.19-.18.19a.18.18,0,0,1-.18-.19v-1h-1a.19.19,0,0,1-.18-.18.17.17,0,0,1,.18-.18h1v-1a.17.17,0,0,1,.18-.18.18.18,0,0,1,.18.17v1h1A.17.17,0,0,1,4.1,10.59Zm11.56,4.07s-.06,0-.11.07a1.72,1.72,0,0,1-1.13.38,4.32,4.32,0,0,1-2.74-1.58,11.1,11.1,0,0,0-1.29-1.09,2.34,2.34,0,0,0,.94-1.92,2.42,2.42,0,0,0-.7-1.73A2.27,2.27,0,0,0,9,8.13a2.3,2.3,0,0,0-1.59.66,2.42,2.42,0,0,0-.7,1.73,2.38,2.38,0,0,0,.61,1.63,2.38,2.38,0,0,0-.31.25.19.19,0,0,0-.08.14.16.16,0,0,0,.15.16.23.23,0,0,0,.15-.07,2.26,2.26,0,0,1,.35-.24,2.34,2.34,0,0,0,2.43.25,9.75,9.75,0,0,1,1.36,1.15,4.61,4.61,0,0,0,3,1.68,1.59,1.59,0,0,0,1.38-.65A.16.16,0,0,0,15.66,14.66ZM9,8.49a1.94,1.94,0,0,1,1.94,2,2,2,0,0,1-.91,1.71,3,3,0,0,0-1.54-.45A1.9,1.9,0,0,0,7.7,12a2,2,0,0,1-.59-1.45A1.94,1.94,0,0,1,9,8.49Zm-.52,3.65a2.48,2.48,0,0,1,1.13.28,2,2,0,0,1-.61.09,2,2,0,0,1-1-.29A1.74,1.74,0,0,1,8.52,12.14Zm8.23-3.82v3a1.75,1.75,0,0,1-2,1.58c-1.29,0-2-.79-2-1.58v-3a.21.21,0,0,1,.36,0v3c0,.61.49,1.23,1.6,1.23.8,0,1.61-.42,1.61-1.23v-3a.17.17,0,0,1,.18-.1c.13,0,.17.08.17.1Zm2.2,0v4.4s0,.11-.18.11a.17.17,0,0,1-.18-.11h0V8.31h0a.21.21,0,0,1,.36,0Zm4.79,4.33c0,.14-.08.17-.1.17H21a.19.19,0,0,1-.19-.2V8.31h0A.17.17,0,0,1,21,8.2c.14,0,.17.08.17.1v4.16h2.46S23.74,12.49,23.74,12.63Zm4.26,0c0,.14-.08.17-.09.17H25.27a.19.19,0,0,1-.19-.2V8.31h0a.21.21,0,0,1,.36,0v4.16h2.47S28,12.49,28,12.63Z"></path></g></g></svg>